HIERARCHY
ROOT Hips
{
 OFFSET 0.000000 0.000000 0.000000
 CHANNELS 6 Xposition Yposition Zposition Yrotation Xrotation Zrotation
 JOINT Chest
 {
  OFFSET 0.000000 13.173100 -0.061900
  CHANNELS 3 Yrotation Xrotation Zrotation
  JOINT Chest2
  {
   OFFSET 0.000000 8.040800 0.126200
   CHANNELS 3 Yrotation Xrotation Zrotation
   JOINT Chest3
   {
    OFFSET 0.000000 7.994400 0.000000
    CHANNELS 3 Yrotation Xrotation Zrotation
    JOINT Chest4
    {
     OFFSET 0.000000 7.986200 0.000000
     CHANNELS 3 Yrotation Xrotation Zrotation
     JOINT Neck
     {
      OFFSET 0.000000 12.259400 0.000000
      CHANNELS 3 Yrotation Xrotation Zrotation
      JOINT Head
      {
       OFFSET 0.000000 7.518700 0.267100
       CHANNELS 3 Yrotation Xrotation Zrotation
       End Site
       {
        OFFSET 0.000000 13.617700 0.141000
       }
      }
     }
     JOINT RightCollar
     {
      OFFSET -2.983800 8.314300 0.000000
      CHANNELS 3 Yrotation Xrotation Zrotation
      JOINT RightShoulder
      {
       OFFSET -16.133400 0.000000 0.000000
       CHANNELS 3 Yrotation Xrotation Zrotation
       JOINT RightElbow
       {
        OFFSET 0.000000 -29.822100 0.000000
        CHANNELS 3 Yrotation Xrotation Zrotation
        JOINT RightWrist
        {
         OFFSET 0.000000 -24.437700 0.010900
         CHANNELS 3 Yrotation Xrotation Zrotation
         End Site
         {
          OFFSET 0.000000 -18.312300 0.000000
         }
        }
       }
      }
     }
     JOINT LeftCollar
     {
      OFFSET 2.983800 8.314300 0.000000
      CHANNELS 3 Yrotation Xrotation Zrotation
      JOINT LeftShoulder
      {
       OFFSET 16.133400 0.000000 0.000000
       CHANNELS 3 Yrotation Xrotation Zrotation
       JOINT LeftElbow
       {
        OFFSET 0.000000 -29.822100 0.000000
        CHANNELS 3 Yrotation Xrotation Zrotation
        JOINT LeftWrist
        {
         OFFSET 0.000000 -24.437700 0.010900
         CHANNELS 3 Yrotation Xrotation Zrotation
         End Site
         {
          OFFSET 0.000000 -18.312300 0.000000
         }
        }
       }
      }
     }
    }
   }
  }
 }
 JOINT RightHip
 {
  OFFSET -11.206700 0.306200 0.030900
  CHANNELS 3 Yrotation Xrotation Zrotation
  JOINT RightKnee
  {
   OFFSET 0.000000 -57.334900 0.009400
   CHANNELS 3 Yrotation Xrotation Zrotation
   JOINT RightAnkle
   {
    OFFSET 0.000000 -43.376200 0.036600
    CHANNELS 3 Yrotation Xrotation Zrotation
    JOINT RightToe
    {
     OFFSET 0.000000 -10.035500 18.363100
     CHANNELS 3 Yrotation Xrotation Zrotation
     End Site
     {
      OFFSET 0.000000 -1.618500 7.239000
     }
    }
   }
  }
 }
 JOINT LeftHip
 {
  OFFSET 11.206700 0.306200 0.030900
  CHANNELS 3 Yrotation Xrotation Zrotation
  JOINT LeftKnee
  {
   OFFSET 0.000000 -57.334900 0.009400
   CHANNELS 3 Yrotation Xrotation Zrotation
   JOINT LeftAnkle
   {
    OFFSET 0.000000 -43.376200 0.036600
    CHANNELS 3 Yrotation Xrotation Zrotation
    JOINT LeftToe
    {
     OFFSET 0.000000 -10.035500 18.363100
     CHANNELS 3 Yrotation Xrotation Zrotation
     End Site
     {
      OFFSET 0.000000 -1.618500 7.239000
     }
    }
   }
  }
 }
}
MOTION
Frames: 16
Frame Time: 0.008333
-94.455237 66.737768 94.029434 172.762625 -39.349768 -3.937185 3.654890 20.898576 2.420854 0.398219 2.804659 0.287584 0.657219 4.571777 0.479372 2.904935 17.963806 2.283482 0.818227 15.012837 -0.130180 1.563677 -7.936574 -0.561664 -5.846447 0.293872 -3.090469 -3.440568 -2.692065 3.803314 -83.961141 -80.927284 95.250548 1.337726 8.560647 4.926563 -2.280058 1.196572 0.522142 11.519671 -1.192636 0.133258 109.470848 -77.642000 -119.911386 -3.487004 4.098733 -0.104550 -3.139676 -41.834613 4.434519 -125.129518 85.495719 -120.924810 -1.754389 -9.333201 -0.257561 0.300138 -0.497762 0.013235 -1.711408 -38.211058 5.553041 69.832108 83.134382 60.237213 -4.724920 -13.101335 8.982863 -0.067699 0.112665 -0.035335
-94.400629 66.703407 94.020873 172.839001 -39.348811 -4.019592 3.648225 20.948638 2.495559 0.396601 2.807021 0.290198 0.654562 4.575512 0.483661 2.896356 17.966586 2.295426 0.821268 15.023077 -0.152495 1.577620 -7.917146 -0.604424 -5.822193 0.308458 -3.067639 -3.465670 -2.732206 3.716945 -83.553998 -80.971490 94.916342 1.401528 8.597990 5.091447 -2.302576 1.183965 0.504454 11.532741 -1.185025 0.188484 109.641855 -77.618268 -120.083431 -3.559366 4.180101 -0.242177 -3.315676 -42.009332 4.624167 -125.249310 85.145063 -121.068586 -1.540679 -9.334015 -0.113525 0.242257 -0.526722 -0.150465 -1.805441 -38.231081 5.654971 70.167696 83.170265 60.557935 -4.747581 -13.140104 8.991080 -0.082970 0.130509 -0.037023
-94.348963 66.678771 94.001874 172.949999 -39.355735 -4.136210 3.615566 20.999913 2.580910 0.421208 2.856724 0.315182 0.626699 4.534173 0.466083 2.897579 17.986894 2.315795 0.815399 15.019777 -0.181653 1.593357 -7.895897 -0.643586 -5.837228 0.297950 -3.057676 -3.457208 -2.765670 3.639396 -83.148456 -81.037345 94.573698 1.490264 8.611156 5.271241 -2.328178 1.163068 0.479210 11.596832 -1.199375 0.303301 109.596283 -77.528348 -120.089882 -3.675431 4.284030 -0.394743 -3.581640 -42.100048 4.851559 -125.885375 84.987416 -121.743677 -1.454479 -9.428066 -0.053935 0.117916 -0.453008 -0.222297 -1.961770 -38.230313 5.779500 70.474308 83.214299 60.824600 -4.743463 -13.179606 9.007540 -0.095193 0.141873 -0.046011
-94.309247 66.661160 93.973794 173.036724 -39.359890 -4.211430 3.586474 21.049188 2.633832 0.415446 2.862585 0.317701 0.631079 4.535659 0.468778 2.893573 17.988282 2.324236 0.822000 15.031697 -0.199512 1.612236 -7.873438 -0.679301 -5.858574 0.271878 -3.062991 -3.406983 -2.754742 3.542333 -82.857462 -81.067634 94.309466 1.596183 8.609440 5.467758 -2.341753 1.164972 0.467190 11.650261 -1.255220 0.375314 109.399545 -77.456575 -119.947304 -3.863221 4.420485 -0.552689 -3.743901 -42.147961 4.981843 -127.295384 85.002747 -123.126950 -1.511968 -9.550574 -0.078447 0.066695 -0.312909 -0.187293 -2.099684 -38.227857 5.886899 70.713648 83.274034 61.009176 -4.752420 -13.203036 9.017773 -0.083700 0.147919 -0.043496
-94.274720 66.648971 93.939004 173.109263 -39.357970 -4.279574 3.564910 21.097517 2.687167 0.404968 2.863210 0.321461 0.653655 4.583787 0.493919 2.868538 17.935676 2.301606 0.831124 15.045104 -0.214680 1.634718 -7.848185 -0.710883 -5.879574 0.254256 -3.067700 -3.350880 -2.750590 3.403793 -82.600034 -81.043584 94.063577 1.709694 8.616185 5.672969 -2.358803 1.147849 0.452826 11.710443 -1.295831 0.432397 109.603353 -77.556198 -120.118376 -3.930634 4.587730 -0.808567 -3.894671 -42.180959 5.090528 -129.440608 85.129866 -125.244831 -1.606450 -9.627703 -0.157187 0.023229 -0.239729 -0.154327 -2.244566 -38.228671 6.008276 70.954601 83.349673 61.178786 -4.757768 -13.212638 9.041913 -0.068166 0.125026 -0.047715
-94.250041 66.631069 93.907328 173.146306 -39.297271 -4.307950 3.545365 21.089553 2.717528 0.397849 2.836559 0.309286 0.654272 4.582215 0.493877 2.876980 17.941662 2.308283 0.847100 15.067781 -0.222003 1.630620 -7.859290 -0.725953 -5.890565 0.271231 -3.058797 -3.343168 -2.782932 3.310903 -82.179651 -81.052258 93.685141 1.820230 8.648941 5.884041 -2.366354 1.144426 0.446284 11.778648 -1.335672 0.478661 109.786653 -77.646328 -120.282913 -4.068685 4.799157 -1.083401 -4.049089 -42.209014 5.180041 -131.733328 85.330816 -127.525530 -1.711231 -9.820437 -0.342232 -0.020722 -0.089244 -0.071234 -2.361715 -38.283211 6.110201 71.120858 83.425311 61.271334 -4.771049 -13.239583 9.052033 -0.039160 0.131872 -0.036080
-94.236863 66.611651 93.868721 173.157204 -39.238304 -4.285792 3.524392 21.083718 2.709339 0.397221 2.845473 0.316722 0.653086 4.545209 0.472344 2.874882 17.929295 2.300918 0.857846 15.083309 -0.222571 1.644035 -7.844571 -0.738439 -5.887136 0.304933 -3.045307 -3.360955 -2.818226 3.255707 -81.694645 -81.074901 93.245800 1.922675 8.714244 6.101039 -2.355309 1.175377 0.460543 11.840643 -1.381887 0.499622 109.994779 -77.739863 -120.477119 -4.268690 5.058004 -1.380960 -4.059746 -42.213495 5.112341 -134.388629 85.552129 -130.077129 -1.796389 -10.026732 -0.573919 -0.048674 0.038813 0.009761 -2.430396 -38.333067 6.160698 71.280502 83.496964 61.357745 -4.787827 -13.265159 9.061228 -0.015367 0.144964 -0.017277
-94.233749 66.584639 93.825526 173.160494 -39.175539 -4.228400 3.498172 21.126556 2.700701 0.396572 2.802668 0.292299 0.651345 4.529355 0.464870 2.878080 17.922056 2.291272 0.856237 15.073154 -0.235043 1.688935 -7.795449 -0.757745 -5.896523 0.300795 -3.047148 -3.381091 -2.843173 3.221238 -81.228599 -81.089619 92.817153 2.018501 8.813344 6.311769 -2.358431 1.172215 0.464554 11.900410 -1.410623 0.512692 110.327040 -77.856381 -120.776781 -4.497150 5.368015 -1.720914 -4.018417 -42.197510 4.958027 -136.907296 85.754194 -132.470162 -1.842081 -10.230124 -0.832667 -0.066335 0.133211 0.088416 -2.430243 -38.395639 6.127015 71.513392 83.542926 61.559326 -4.801689 -13.281563 9.070665 0.009684 0.142847 -0.011870
-94.235912 66.543605 93.781565 173.166567 -39.099581 -4.161513 3.469330 21.106962 2.651925 0.389862 2.774219 0.276800 0.658036 4.583270 0.496310 2.861137 17.876774 2.253316 0.895159 15.122619 -0.231279 1.740387 -7.759508 -0.779684 -5.902192 0.298614 -3.050227 -3.390473 -2.868290 3.209444 -81.007789 -81.094469 92.612200 2.112697 8.965862 6.504469 -2.372265 1.197483 0.499490 11.967011 -1.450604 0.489135 110.777288 -77.989591 -121.173690 -4.749758 5.730855 -2.118605 -3.979655 -42.170063 4.775976 -138.965228 85.932446 -134.411034 -1.851605 -10.415972 -1.090117 -0.109479 0.216232 0.180362 -2.422181 -38.472801 6.074462 71.836959 83.575013 61.852812 -4.827217 -13.323196 9.071285 0.035482 0.159489 0.001754
-94.239535 66.487995 93.735186 173.154618 -39.032962 -4.083880 3.452408 21.069976 2.589314 0.398137 2.806282 0.295119 0.645613 4.543897 0.474805 2.858502 17.901356 2.259618 0.896993 15.098326 -0.245303 1.786605 -7.701875 -0.782238 -5.905621 0.256939 -3.062720 -3.395559 -2.867338 3.201390 -80.539656 -81.105229 92.159937 2.181308 9.072025 6.661055 -2.388365 1.173696 0.502259 12.023342 -1.461319 0.494792 111.314543 -78.140825 -121.633701 -5.029784 6.146231 -2.586816 -3.954576 -42.116654 4.608239 -140.511037 86.094087 -135.872350 -1.846372 -10.570004 -1.321460 -0.094924 0.229661 0.208768 -2.454001 -38.524176 6.068604 72.240275 83.601825 62.180075 -4.904152 -13.419791 9.065224 0.085661 0.217708 0.028108
-94.256209 66.410400 93.693267 173.169665 -38.933204 -3.972771 3.413739 21.046741 2.499728 0.383739 2.772777 0.278304 0.638868 4.527289 0.466478 2.849985 17.900140 2.255372 0.903985 15.099407 -0.248711 1.810076 -7.665270 -0.777428 -5.902867 0.239543 -3.069054 -3.394683 -2.854348 3.203499 -80.200049 -81.118338 91.829430 2.236575 9.168266 6.778873 -2.393376 1.163298 0.501882 12.063128 -1.464772 0.513157 111.956426 -78.316304 -122.179191 -5.344749 6.616157 -3.130244 -3.948697 -42.095231 4.406552 -141.766832 86.239584 -137.095627 -1.850288 -10.700650 -1.507078 -0.075935 0.215833 0.212421 -2.406440 -38.629393 5.935404 72.637622 83.596708 62.558658 -4.978892 -13.524055 9.055104 0.126245 0.302508 0.052014
-94.276946 66.315210 93.656812 173.205683 -38.812399 -3.857666 3.341365 20.978409 2.373643 0.393404 2.789852 0.290558 0.622200 4.503080 0.453702 2.831210 17.873318 2.236624 0.913715 15.120880 -0.243506 1.822421 -7.644760 -0.774371 -5.895188 0.209611 -3.082208 -3.404467 -2.823844 3.219497 -79.955139 -81.125843 91.594957 2.282340 9.254755 6.863095 -2.418875 1.177441 0.521869 12.121106 -1.482234 0.510513 112.759586 -78.525287 -122.872554 -5.695223 7.149049 -3.757870 -3.971881 -42.107142 4.220040 -142.800792 86.362113 -138.146939 -1.877106 -10.793372 -1.627873 -0.066710 0.215082 0.235283 -2.347939 -38.766639 5.768532 73.025515 83.595654 62.938997 -5.042697 -13.626085 9.046931 0.166274 0.395730 0.077620
-94.296013 66.211327 93.623047 173.242364 -38.700174 -3.741829 3.290982 20.942996 2.271761 0.388893 2.780726 0.287637 0.629948 4.515111 0.466986 2.775470 17.811993 2.190945 0.934158 15.168028 -0.227414 1.810446 -7.675193 -0.785685 -5.894928 0.193080 -3.096886 -3.411567 -2.807350 3.240322 -79.751263 -81.128389 91.402835 2.318657 9.305607 6.913022 -2.448831 1.189699 0.537283 12.181487 -1.508628 0.514504 113.723608 -78.774552 -123.715075 -6.087203 7.752831 -4.472137 -3.987476 -42.137892 4.058764 -143.642982 86.452281 -139.035097 -1.935061 -10.835037 -1.679966 -0.019044 0.132598 0.191294 -2.284984 -38.897515 5.598234 73.440652 83.594548 63.351541 -5.110040 -13.736952 9.037658 0.220581 0.496097 0.102969
-94.315067 66.100212 93.597492 173.263155 -38.571487 -3.603101 3.249531 20.888254 2.155982 0.378461 2.762346 0.277910 0.625024 4.506791 0.463395 2.765529 17.819831 2.185811 0.915081 15.136794 -0.237601 1.812538 -7.667777 -0.784260 -5.914897 0.140496 -3.119181 -3.416064 -2.798140 3.260424 -79.587183 -81.114071 91.249685 2.348766 9.310671 6.924689 -2.499998 1.178164 0.546224 12.245982 -1.564893 0.519649 114.826270 -79.058573 -124.690593 -6.537762 8.434158 -5.267721 -3.941879 -42.215866 3.891131 -144.298763 86.505773 -139.743815 -1.996909 -10.878493 -1.709977 0.023261 0.069283 0.173687 -2.201797 -39.042836 5.407067 73.864444 83.574369 63.777036 -5.190214 -13.865016 9.025500 0.270122 0.622805 0.128942
-94.330629 65.988462 93.579066 173.273537 -38.439131 -3.453366 3.204693 20.815736 2.022791 0.376050 2.757629 0.276041 0.615139 4.490466 0.454585 2.753365 17.811800 2.175704 0.908367 15.131161 -0.238808 1.810549 -7.647010 -0.777937 -5.930982 0.114659 -3.138681 -3.416764 -2.791759 3.299835 -79.458284 -81.098587 91.132632 2.390445 9.313754 6.927322 -2.526017 1.176355 0.552490 12.296865 -1.624331 0.544156 116.065686 -79.365934 -125.806891 -7.049764 9.191070 -6.123874 -3.828961 -42.343898 3.710964 -144.845561 86.512703 -140.338812 -2.046212 -10.870846 -1.694401 0.043631 -0.005774 0.169038 -2.125866 -39.187910 5.209640 74.264997 83.541561 64.170843 -5.243170 -14.004650 9.014505 0.294855 0.756918 0.139717
-94.325484 65.890100 93.557737 173.247947 -38.375847 -3.342679 3.213840 20.803328 1.954539 0.361563 2.732917 0.263064 0.625702 4.503421 0.462853 2.726736 17.784039 2.156536 0.916660 15.150373 -0.235149 1.800823 -7.650885 -0.779232 -5.938922 0.105531 -3.148676 -3.413403 -2.790485 3.334668 -79.350185 -81.064124 91.031074 2.375607 9.282191 6.909934 -2.544187 1.188211 0.559460 12.350728 -1.699406 0.576222 117.396915 -79.684512 -127.032563 -7.612663 9.996496 -7.000173 -3.681782 -42.425969 3.610725 -144.911788 86.482869 -140.426319 -2.115390 -10.815934 -1.645549 0.085637 -0.104314 0.157423 -2.056083 -39.268996 5.092541 74.808201 83.502856 64.729759 -5.301262 -14.106793 8.986250 0.314547 0.842238 0.148307
